ffmpeg version 2.8.11-0ubuntu0.16.04.1 Copyright (c) 2000-2017 the FFmpeg developers
  built with gcc 5.4.0 (Ubuntu 5.4.0-6ubuntu1~16.04.4) 20160609
  configuration: --prefix=/usr --extra-version=0ubuntu0.16.04.1 --build-suffix=-ffmpeg --toolchain=hardened --libdir=/usr/lib/x86_64-linux-gnu --incdir=/usr/include/x86_64-linux-gnu --cc=cc --cxx=g++ --enable-gpl --enable-shared --disable-stripping --disable-decoder=libopenjpeg --disable-decoder=libschroedinger --enable-avresample --enable-avisynth --enable-gnutls --enable-ladspa --enable-libass --enable-libbluray --enable-libbs2b --enable-libcaca --enable-libcdio --enable-libflite --enable-libfontconfig --enable-libfreetype --enable-libfribidi --enable-libgme --enable-libgsm --enable-libmodplug --enable-libmp3lame --enable-libopenjpeg --enable-libopus --enable-libpulse --enable-librtmp --enable-libschroedinger --enable-libshine --enable-libsnappy --enable-libsoxr --enable-libspeex --enable-libssh --enable-libtheora --enable-libtwolame --enable-libvorbis --enable-libvpx --enable-libwavpack --enable-libwebp --enable-libx265 --enable-libxvid --enable-libzvbi --enable-openal --enable-opengl --enable-x11grab --enable-libdc1394 --enable-libiec61883 --enable-libzmq --enable-frei0r --enable-libx264 --enable-libopencv
  libavutil      54. 31.100 / 54. 31.100
  libavcodec     56. 60.100 / 56. 60.100
  libavformat    56. 40.101 / 56. 40.101
  libavdevice    56.  4.100 / 56.  4.100
  libavfilter     5. 40.101 /  5. 40.101
  libavresample   2.  1.  0 /  2.  1.  0
  libswscale      3.  1.101 /  3.  1.101
  libswresample   1.  2.101 /  1.  2.101
  libpostproc    53.  3.100 / 53.  3.100
[mp3 @ 0x14a78c0] Unknown attached picture mimetype: ('image/png', None), skipping.
[mp3 @ 0x14a78c0] Skipping 0 bytes of junk at 17522.
Input #0, mp3, from 'jan-kochanowski-treny-tren-xviii.mp3':
  Metadata:
    title           : Jan Kochanowski, "Treny", Tren XVIII
    artist          : Jakub Wieczorek
    album           : Wolne Lektury
    encoder         : Lavf53.21.0
    genre           : Speech
    originator_reference: 7x!5baW0s4caaaGk
    date            : 2008-10-31
    performer       : Gosia Kozera
    album_artist    : Fundacja Nowoczesna Polska
    time_reference  : 216565273
    copyright       : 2008 Fundacja Nowoczesna Polska. Licensed to the public under http://creativecommons.org/licenses/by-sa/3.0/deed.pl verify at http://wolnelektury.pl/katalog/lektura/treny-tren-xviii/
    creation_time   : 0012-08-57
    encoded_by      : Pro Tools
    publisher       : Fundacja Nowoczesna Polska
  Duration: 00:01:58.83, start: 0.000000, bitrate: 65 kb/s
    Stream #0:0: Audio: mp3, 44100 Hz, mono, s16p, 64 kb/s
Output #0, null, to 'pipe:':
  Metadata:
    title           : Jan Kochanowski, "Treny", Tren XVIII
    artist          : Jakub Wieczorek
    album           : Wolne Lektury
    publisher       : Fundacja Nowoczesna Polska
    genre           : Speech
    originator_reference: 7x!5baW0s4caaaGk
    date            : 2008-10-31
    performer       : Gosia Kozera
    album_artist    : Fundacja Nowoczesna Polska
    time_reference  : 216565273
    copyright       : 2008 Fundacja Nowoczesna Polska. Licensed to the public under http://creativecommons.org/licenses/by-sa/3.0/deed.pl verify at http://wolnelektury.pl/katalog/lektura/treny-tren-xviii/
    encoded_by      : Pro Tools
    encoder         : Lavf56.40.101
    Stream #0:0: Audio: pcm_s16le, 44100 Hz, mono, s16, 705 kb/s
    Metadata:
      encoder         : Lavc56.60.100 pcm_s16le
Stream mapping:
  Stream #0:0 -> #0:0 (mp3 (native) -> pcm_s16le (native))
Press [q] to stop, [?] for help
[silencedetect @ 0x14c51c0] silence_start: -0.00367347
[silencedetect @ 0x14c51c0] silence_end: 0.574694 | silence_duration: 0.578367
[silencedetect @ 0x14c51c0] silence_start: 1.56367
[silencedetect @ 0x14c51c0] silence_end: 2.0898 | silence_duration: 0.526122
[silencedetect @ 0x14c51c0] silence_start: 2.66082
[silencedetect @ 0x14c51c0] silence_end: 3.50041 | silence_duration: 0.839592
[silencedetect @ 0x14c51c0] silence_start: 5.06408
[silencedetect @ 0x14c51c0] silence_end: 9.06449 | silence_duration: 4.00041
[silencedetect @ 0x14c51c0] silence_start: 11.9604
[silencedetect @ 0x14c51c0] silence_end: 13.5837 | silence_duration: 1.62327
[silencedetect @ 0x14c51c0] silence_start: 15.4086
[silencedetect @ 0x14c51c0] silence_end: 16.0131 | silence_duration: 0.60449
[silencedetect @ 0x14c51c0] silence_start: 17.4722
[silencedetect @ 0x14c51c0] silence_end: 18.5992 | silence_duration: 1.12694
[silencedetect @ 0x14c51c0] silence_start: 22.0959
[silencedetect @ 0x14c51c0] silence_end: 23.9543 | silence_duration: 1.85837
[silencedetect @ 0x14c51c0] silence_start: 24.8388
[silencedetect @ 0x14c51c0] silence_end: 25.7306 | silence_duration: 0.891837
[silencedetect @ 0x14c51c0] silence_start: 28.5482
[silencedetect @ 0x14c51c0] silence_end: 29.0743 | silence_duration: 0.526122
[silencedetect @ 0x14c51c0] silence_start: 30.0894
[silencedetect @ 0x14c51c0] silence_end: 31.7127 | silence_duration: 1.62327
[silencedetect @ 0x14c51c0] silence_start: 35.131
[silencedetect @ 0x14c51c0] silence_end: 35.6833 | silence_duration: 0.552245
[silencedetect @ 0x14c51c0] silence_start: 37.1424
[silencedetect @ 0x14c51c0] silence_end: 39.4449 | silence_duration: 2.30245
[silencedetect @ 0x14c51c0] silence_start: 40.5645
[silencedetect @ 0x14c51c0] silence_end: 42.0571 | silence_duration: 1.49265
[silencedetect @ 0x14c51c0] silence_start: 45.371
[silencedetect @ 0x14c51c0] silence_end: 46.942 | silence_duration: 1.57102
[silencedetect @ 0x14c51c0] silence_start: 50.5171
[silencedetect @ 0x14c51c0] silence_end: 51.3045 | silence_duration: 0.787347
[silencedetect @ 0x14c51c0] silence_start: 53.5212
[silencedetect @ 0x14c51c0] silence_end: 55.0139 | silence_duration: 1.49265
[silencedetect @ 0x14c51c0] silence_start: 57.9098
[silencedetect @ 0x14c51c0] silence_end: 58.6449 | silence_duration: 0.735102
[silencedetect @ 0x14c51c0] silence_start: 63.2127
[silencedetect @ 0x14c51c0] silence_end: 64.0522 | silence_duration: 0.839592
[silencedetect @ 0x14c51c0] silence_start: 66.2429
[silencedetect @ 0x14c51c0] silence_end: 68.9894 | silence_duration: 2.74653
[silencedetect @ 0x14c51c0] silence_start: 68.9857
[silencedetect @ 0x14c51c0] silence_end: 69.9298 | silence_duration: 0.944082
[silencedetect @ 0x14c51c0] silence_start: 77.4494
[silencedetect @ 0x14c51c0] silence_end: 79.569 | silence_duration: 2.11959
[silencedetect @ 0x14c51c0] silence_start: 80.6886
[silencedetect @ 0x14c51c0] silence_end: 81.502 | silence_duration: 0.813469
[silencedetect @ 0x14c51c0] silence_start: 83.5882
[silencedetect @ 0x14c51c0] silence_end: 86.2563 | silence_duration: 2.66816
[silencedetect @ 0x14c51c0] silence_start: 89.9882
[silencedetect @ 0x14c51c0] silence_end: 90.5665 | silence_duration: 0.578367
[silencedetect @ 0x14c51c0] silence_start: 93.1229
[silencedetect @ 0x14c51c0] silence_end: 93.649 | silence_duration: 0.526122
[silencedetect @ 0x14c51c0] silence_start: 95.4216
[silencedetect @ 0x14c51c0] silence_end: 96.4963 | silence_duration: 1.07469
[silencedetect @ 0x14c51c0] silence_start: 99.2878
[silencedetect @ 0x14c51c0] silence_end: 101.538 | silence_duration: 2.2502
[silencedetect @ 0x14c51c0] silence_start: 106.654
[silencedetect @ 0x14c51c0] silence_end: 107.494 | silence_duration: 0.839592
[silencedetect @ 0x14c51c0] silence_start: 109.711
[silencedetect @ 0x14c51c0] silence_end: 112.065 | silence_duration: 2.35469
[silencedetect @ 0x14c51c0] silence_start: 113.368
[silencedetect @ 0x14c51c0] silence_end: 114.625 | silence_duration: 1.25755
[silencedetect @ 0x14c51c0] silence_start: 116.006
size=N/A time=00:01:58.83 bitrate=N/A    
video:0kB audio:10235kB subtitle:0kB other streams:0kB global headers:0kB muxing overhead: unknown
